<svg xmlns="http://www.w3.org/2000/svg" xmlns:xlink="http://www.w3.org/1999/xlink" style="margin:auto;background:#ffffff;display:block;z-index:1;position:relative" preserveAspectRatio="xMidYMid" viewBox="0 0 1920 1001"><g transform="translate(960,500.5) scale(1,1) translate(-960,-500.5)"><path id="path0" d="M 1548.4435407990024 743.4881842084991&#10;c 0 30.494435059214325 -7.461404322999249 8.759039857433903 -16.22044418043315 8.759039857433903&#10;S 1516.0026524381362 773.9826192677134 1516.0026524381362 743.4881842084991&#10;s 7.461404322999249 -8.759039857433903 16.22044418043315 -8.759039857433903&#10;S 1548.4435407990024 712.9937491492848 1548.4435407990024 743.4881842084991&#10;z" fill="none" stroke="none"/><circle cx="0" cy="0" r="19.358986090322972" fill="#51cacc"><animateMotion begin="-4.44636402962356s" dur="10s" repeatCount="indefinite"><mpath xlink:href="#path0"/></animateMotion></circle><path id="path1" d="M 959.2275071246064 279.38684358168274&#10;c 0 32.10337846803977 -7.855081965584198 9.221183176990147 -17.076265142574346 9.221183176990147&#10;S 925.0749768394577 311.4902220497225 925.0749768394577 279.38684358168274&#10;s 7.855081965584198 -9.221183176990147 17.076265142574346 -9.221183176990147&#10;S 959.2275071246064 247.28346511364296 959.2275071246064 279.38684358168274&#10;z" fill="none" stroke="none"/><circle cx="0" cy="0" r="19.649340281135814" fill="#de9dd6"><animateMotion begin="-0.5402889353497331s" dur="10s" repeatCount="indefinite"><mpath xlink:href="#path1"/></animateMotion></circle><path id="path2" d="M 1395.3576707220852 699.6537336906756&#10;c 0 36.0655229063126 -8.824542838778614 10.359245941174896 -19.18378877995351 10.359245941174896&#10;S 1356.990093162178 735.7192565969882 1356.990093162178 699.6537336906756&#10;s 8.824542838778614 -10.359245941174896 19.18378877995351 -10.359245941174896&#10;S 1395.3576707220852 663.588210784363 1395.3576707220852 699.6537336906756&#10;z" fill="none" stroke="none"/><circle cx="0" cy="0" r="18.389238916960146" fill="#51cacc"><animateMotion begin="-6.778310099408125s" dur="10s" repeatCount="indefinite"><mpath xlink:href="#path2"/></animateMotion></circle><path id="path3" d="M 854.5523487994847 792.7255003175721&#10;c 0 29.468588176273414 -7.210399234620089 8.464381710206194 -15.674780944826283 8.464381710206194&#10;S 823.2027869098322 822.1940884938456 823.2027869098322 792.7255003175721&#10;s 7.210399234620089 -8.464381710206194 15.674780944826283 -8.464381710206194&#10;S 854.5523487994847 763.2569121412987 854.5523487994847 792.7255003175721&#10;z" fill="none" stroke="none"/><circle cx="0" cy="0" r="15.370920020237357" fill="#9df871"><animateMotion begin="-9.009225685999787s" dur="10s" repeatCount="indefinite"><mpath xlink:href="#path3"/></animateMotion></circle><path id="path4" d="M 686.5347292092233 675.3761319761257&#10;c 0 30.715225499859905 -7.515427515923167 8.822458388257633 -16.3378859041808 8.822458388257633&#10;S 653.8589574008618 706.0913574759857 653.8589574008618 675.3761319761257&#10;s 7.515427515923167 -8.822458388257633 16.3378859041808 -8.822458388257633&#10;S 686.5347292092233 644.6609064762658 686.5347292092233 675.3761319761257&#10;z" fill="none" stroke="none"/><circle cx="0" cy="0" r="11.712557696926423" fill="#e0ff77"><animateMotion begin="-8.219525996852079s" dur="10s" repeatCount="indefinite"><mpath xlink:href="#path4"/></animateMotion></circle><path id="path5" d="M 565.3305561851549 441.63886415288675&#10;c 0 28.308465932750245 -6.926539536736762 8.131155108343156 -15.057694645079918 8.131155108343156&#10;S 535.2151668949951 469.947330085637 535.2151668949951 441.63886415288675&#10;s 6.926539536736762 -8.131155108343156 15.057694645079918 -8.131155108343156&#10;S 565.3305561851549 413.3303982201365 565.3305561851549 441.63886415288675&#10;z" fill="none" stroke="none"/><circle cx="0" cy="0" r="12.706148163897462" fill="#e0ff77"><animateMotion begin="-8.425452632944431s" dur="10s" repeatCount="indefinite"><mpath xlink:href="#path5"/></animateMotion></circle><path id="path6" d="M 785.1686182199282 39.92760833739835&#10;c 0 34.07423821194831 -8.33731360505118 9.787281188538344 -18.124594793589527 9.787281188538344&#10;S 748.9194286327493 74.00184654934665 748.9194286327493 39.92760833739835&#10;s 8.33731360505118 -9.787281188538344 18.124594793589527 -9.787281188538344&#10;S 785.1686182199282 5.853370125450034 785.1686182199282 39.92760833739835&#10;z" fill="none" stroke="none"/><circle cx="0" cy="0" r="19.00049444012969" fill="#ff708e"><animateMotion begin="-2.473436255950814s" dur="10s" repeatCount="indefinite"><mpath xlink:href="#path6"/></animateMotion></circle><path id="path7" d="M 1482.336499887748 59.2537269670742&#10;c 0 22.12735840983293 -5.414140887512312 6.355730607079671 -11.769871494591984 6.355730607079671&#10;S 1458.796756898564 81.38108537690712 1458.796756898564 59.2537269670742&#10;s 5.414140887512312 -6.355730607079671 11.769871494591984 -6.355730607079671&#10;S 1482.336499887748 37.12636855724127 1482.336499887748 59.2537269670742&#10;z" fill="none" stroke="none"/><circle cx="0" cy="0" r="11.177891753050002" fill="#9df871"><animateMotion begin="-7.0419496121336955s" dur="10s" repeatCount="indefinite"><mpath xlink:href="#path7"/></animateMotion></circle><path id="path8" d="M 288.44599040351386 831.6080937723832&#10;c 0 32.68723483298768 -7.997940437858687 9.388886600964547 -17.386827038823235 9.388886600964547&#10;S 253.67233632586738 864.2953286053709 253.67233632586738 831.6080937723832&#10;s 7.997940437858687 -9.388886600964547 17.386827038823235 -9.388886600964547&#10;S 288.44599040351386 798.9208589393955 288.44599040351386 831.6080937723832&#10;z" fill="none" stroke="none"/><circle cx="0" cy="0" r="17.737768455677347" fill="#e0ff77"><animateMotion begin="-4.011352747104282s" dur="10s" repeatCount="indefinite"><mpath xlink:href="#path8"/></animateMotion></circle><path id="path9" d="M 97.01322779992356 104.64654038999016&#10;c 0 22.452262113471424 -5.493638602232369 6.44905401131626 -11.94269261354863 6.44905401131626&#10;S 73.1278425728263 127.09880250346158 73.1278425728263 104.64654038999016&#10;s 5.493638602232369 -6.44905401131626 11.94269261354863 -6.44905401131626&#10;S 97.01322779992356 82.19427827651874 97.01322779992356 104.64654038999016&#10;z" fill="none" stroke="none"/><circle cx="0" cy="0" r="13.753727250971027" fill="#9df871"><animateMotion begin="-7.624846535934877s" dur="10s" repeatCount="indefinite"><mpath xlink:href="#path9"/></animateMotion></circle><path id="path10" d="M 1823.41944771075 633.7941957837735&#10;c 0 23.66027018185761 -5.789215044497073 6.7960350522356965 -12.58525009673277 6.7960350522356965&#10;S 1798.2489475172845 657.4544659656311 1798.2489475172845 633.7941957837735&#10;s 5.789215044497073 -6.7960350522356965 12.58525009673277 -6.7960350522356965&#10;S 1823.41944771075 610.1339256019158 1823.41944771075 633.7941957837735&#10;z" fill="none" stroke="none"/><circle cx="0" cy="0" r="11.695813267914897" fill="#ff708e"><animateMotion begin="-3.989622844712206s" dur="10s" repeatCount="indefinite"><mpath xlink:href="#path10"/></animateMotion></circle><path id="path11" d="M 679.1876606905986 352.9032932834221&#10;c 0 20.722917432332338 -5.07050107386855 5.95232734758482 -11.02282842145337 5.95232734758482&#10;S 657.1420038476919 373.62621071575444 657.1420038476919 352.9032932834221&#10;s 5.07050107386855 -5.95232734758482 11.02282842145337 -5.95232734758482&#10;S 679.1876606905986 332.18037585108976 679.1876606905986 352.9032932834221&#10;z" fill="none" stroke="none"/><circle cx="0" cy="0" r="12.45844922062268" fill="#9df871"><animateMotion begin="-8.902619938337113s" dur="10s" repeatCount="indefinite"><mpath xlink:href="#path11"/></animateMotion></circle><path id="path12" d="M 1637.3096393624264 942.4479863534303&#10;c 0 23.695177911046333 -5.7977562973836765 6.806061740406926 -12.603818037790601 6.806061740406926&#10;S 1612.102003286845 966.1431642644767 1612.102003286845 942.4479863534303&#10;s 5.7977562973836765 -6.806061740406926 12.603818037790601 -6.806061740406926&#10;S 1637.3096393624264 918.752808442384 1637.3096393624264 942.4479863534303&#10;z" fill="none" stroke="none"/><circle cx="0" cy="0" r="11.735139365651062" fill="#e0ff77"><animateMotion begin="-1.9242407161538355s" dur="10s" repeatCount="indefinite"><mpath xlink:href="#path12"/></animateMotion></circle><path id="path13" d="M 563.0596656151941 632.5877364993066&#10;c 0 25.34927146128908 -6.202481314996263 7.281173717604311 -13.483655032600574 7.281173717604311&#10;S 536.0923555499929 657.9370079605957 536.0923555499929 632.5877364993066&#10;s 6.202481314996263 -7.281173717604311 13.483655032600574 -7.281173717604311&#10;S 563.0596656151941 607.2384650380176 563.0596656151941 632.5877364993066&#10;z" fill="none" stroke="none"/><circle cx="0" cy="0" r="10.989147172274063" fill="#ff708e"><animateMotion begin="-1.1799561423294636s" dur="10s" repeatCount="indefinite"><mpath xlink:href="#path13"/></animateMotion></circle><path id="path14" d="M 885.492506284082 119.66285758003264&#10;c 0 30.712479027071897 -7.514755506623974 8.82166950777597 -16.336425014399943 8.82166950777597&#10;S 852.819656255282 150.37533660710454 852.819656255282 119.66285758003264&#10;s 7.514755506623974 -8.82166950777597 16.336425014399943 -8.82166950777597&#10;S 885.492506284082 88.95037855296074 885.492506284082 119.66285758003264&#10;z" fill="none" stroke="none"/><circle cx="0" cy="0" r="12.545360302805186" fill="#ff708e"><animateMotion begin="-9.601368431045387s" dur="10s" repeatCount="indefinite"><mpath xlink:href="#path14"/></animateMotion></circle><path id="path15" d="M 1585.725145823976 888.3435601022559&#10;c 0 18.967195566041813 -4.640909553393208 5.448024258331159 -10.088933811724367 5.448024258331159&#10;S 1565.547278200527 907.3107556682977 1565.547278200527 888.3435601022559&#10;s 4.640909553393208 -5.448024258331159 10.088933811724367 -5.448024258331159&#10;S 1585.725145823976 869.376364536214 1585.725145823976 888.3435601022559&#10;z" fill="none" stroke="none"/><circle cx="0" cy="0" r="18.627576416241688" fill="#9df871"><animateMotion begin="-2.848514897568468s" dur="10s" repeatCount="indefinite"><mpath xlink:href="#path15"/></animateMotion></circle><path id="path16" d="M 186.7192596645598 612.8109252271909&#10;c 0 34.09570510148802 -8.342566141853451 9.79344721000188 -18.136013351855333 9.79344721000188&#10;S 150.44723296084913 646.9066303286788 150.44723296084913 612.8109252271909&#10;s 8.342566141853451 -9.79344721000188 18.136013351855333 -9.79344721000188&#10;S 186.7192596645598 578.7152201257029 186.7192596645598 612.8109252271909&#10;z" fill="none" stroke="none"/><circle cx="0" cy="0" r="17.478183364611166" fill="#de9dd6"><animateMotion begin="-7.334565159507623s" dur="10s" repeatCount="indefinite"><mpath xlink:href="#path16"/></animateMotion></circle><path id="path17" d="M 722.687237322953 428.25438898659326&#10;c 0 22.870342550798764 -5.595934879450761 6.569140945442198 -12.16507582489296 6.569140945442198&#10;S 698.3570856731671 451.124731537392 698.3570856731671 428.25438898659326&#10;s 5.595934879450761 -6.569140945442198 12.16507582489296 -6.569140945442198&#10;S 722.687237322953 405.3840464357945 722.687237322953 428.25438898659326&#10;z" fill="none" stroke="none"/><circle cx="0" cy="0" r="15.666639441394379" fill="#9df871"><animateMotion begin="-1.96402788404906s" dur="10s" repeatCount="indefinite"><mpath xlink:href="#path17"/></animateMotion></circle><path id="path18" d="M 1105.9503670648508 233.39211020919453&#10;c 0 30.135315336510647 -7.373534603614306 8.655888447721143 -16.02942305133545 8.655888447721143&#10;S 1073.8915209621798 263.52742554570517 1073.8915209621798 233.39211020919453&#10;s 7.373534603614306 -8.655888447721143 16.02942305133545 -8.655888447721143&#10;S 1105.9503670648508 203.25679487268388 1105.9503670648508 233.39211020919453&#10;z" fill="none" stroke="none"/><circle cx="0" cy="0" r="16.374103634051828" fill="#ff708e"><animateMotion begin="-7.90612862726552s" dur="10s" repeatCount="indefinite"><mpath xlink:href="#path18"/></animateMotion></circle><path id="path19" d="M 525.2141242874808 754.21077002243&#10;c 0 29.997780889629013 -7.339882558100715 8.616383872553014 -15.956266430653729 8.616383872553014&#10;S 493.3015914261733 784.208550912059 493.3015914261733 754.21077002243&#10;s 7.339882558100715 -8.616383872553014 15.956266430653729 -8.616383872553014&#10;S 525.2141242874808 724.212989132801 525.2141242874808 754.21077002243&#10;z" fill="none" stroke="none"/><circle cx="0" cy="0" r="12.824913443816568" fill="#51cacc"><animateMotion begin="-8.404143260051661s" dur="10s" repeatCount="indefinite"><mpath xlink:href="#path19"/></animateMotion></circle><path id="path20" d="M 235.93102168979485 357.5282967924314&#10;c 0 27.599173276389603 -6.7529892059251155 7.927422111303397 -14.680411317228511 7.927422111303397&#10;S 206.57019905533784 385.12747006882097 206.57019905533784 357.5282967924314&#10;s 6.7529892059251155 -7.927422111303397 14.680411317228511 -7.927422111303397&#10;S 235.93102168979485 329.9291235160418 235.93102168979485 357.5282967924314&#10;z" fill="none" stroke="none"/><circle cx="0" cy="0" r="16.85214409613288" fill="#ff708e"><animateMotion begin="-0.772180940560927s" dur="10s" repeatCount="indefinite"><mpath xlink:href="#path20"/></animateMotion></circle><path id="path21" d="M 764.6302661639759 223.81751049765262&#10;c 0 37.49338748303645 -9.173913958615302 10.76937725576579 -19.94329121438109 10.76937725576579&#10;S 724.7436837352136 261.31089798068905 724.7436837352136 223.81751049765262&#10;s 9.173913958615302 -10.76937725576579 19.94329121438109 -10.76937725576579&#10;S 764.6302661639759 186.32412301461616 764.6302661639759 223.81751049765262&#10;z" fill="none" stroke="none"/><circle cx="0" cy="0" r="19.44382246090649" fill="#51cacc"><animateMotion begin="-7.897041584253078s" dur="10s" repeatCount="indefinite"><mpath xlink:href="#path21"/></animateMotion></circle><path id="path22" d="M 35.59149806373995 580.2440407257121&#10;c 0 28.43442939779854 -6.9573603845677265 8.167336103622985 -15.124696488190711 8.167336103622985&#10;S 5.342105087358522 608.6784701235107 5.342105087358522 580.2440407257121&#10;s 6.9573603845677265 -8.167336103622985 15.124696488190711 -8.167336103622985&#10;S 35.59149806373995 551.8096113279136 35.59149806373995 580.2440407257121&#10;z" fill="none" stroke="none"/><circle cx="0" cy="0" r="10.982769625370985" fill="#51cacc"><animateMotion begin="-4.969954391239064s" dur="10s" repeatCount="indefinite"><mpath xlink:href="#path22"/></animateMotion></circle><path id="path23" d="M 1366.3695047242436 866.192480245111&#10;c 0 19.054814364434012 -4.662348195553003 5.473191359997004 -10.135539555550006 5.473191359997004&#10;S 1346.0984256131437 885.2472946095451 1346.0984256131437 866.192480245111&#10;s 4.662348195553003 -5.473191359997004 10.135539555550006 -5.473191359997004&#10;S 1366.3695047242436 847.137665880677 1366.3695047242436 866.192480245111&#10;z" fill="none" stroke="none"/><circle cx="0" cy="0" r="19.90999279729551" fill="#e0ff77"><animateMotion begin="-2.6672256775970427s" dur="10s" repeatCount="indefinite"><mpath xlink:href="#path23"/></animateMotion></circle><path id="path24" d="M 1244.887435010234 582.7783503949427&#10;c 0 26.612578836473748 -6.511588438711661 7.644038601965864 -14.155627040677526 7.644038601965864&#10;S 1216.576180928879 609.3909292314164 1216.576180928879 582.7783503949427&#10;s 6.511588438711661 -7.644038601965864 14.155627040677526 -7.644038601965864&#10;S 1244.887435010234 556.1657715584689 1244.887435010234 582.7783503949427&#10;z" fill="none" stroke="none"/><circle cx="0" cy="0" r="15.65902712498933" fill="#de9dd6"><animateMotion begin="-3.292962784292204s" dur="10s" repeatCount="indefinite"><mpath xlink:href="#path24"/></animateMotion></circle><path id="path25" d="M 920.7394585150189 84.38431675219172&#10;c 0 27.887872790544 -6.823628448750127 8.010346439837107 -14.833974888587234 8.010346439837107&#10;S 891.0715087378444 112.27218954273573 891.0715087378444 84.38431675219172&#10;s 6.823628448750127 -8.010346439837107 14.833974888587234 -8.010346439837107&#10;S 920.7394585150189 56.49644396164772 920.7394585150189 84.38431675219172&#10;z" fill="none" stroke="none"/><circle cx="0" cy="0" r="18.15091145838424" fill="#e0ff77"><animateMotion begin="-9.877278310849622s" dur="10s" repeatCount="indefinite"><mpath xlink:href="#path25"/></animateMotion></circle><path id="path26" d="M 686.6750493615987 188.74247661812996&#10;c 0 35.51355413694023 -8.689486650527927 10.200701720184961 -18.890188370712888 10.200701720184961&#10;S 648.894672620173 224.25603075507019 648.894672620173 188.74247661812996&#10;s 8.689486650527927 -10.200701720184961 18.890188370712888 -10.200701720184961&#10;S 686.6750493615987 153.22892248118973 686.6750493615987 188.74247661812996&#10;z" fill="none" stroke="none"/><circle cx="0" cy="0" r="16.331402454533432" fill="#51cacc"><animateMotion begin="-4.111100570138751s" dur="10s" repeatCount="indefinite"><mpath xlink:href="#path26"/></animateMotion></circle><path id="path27" d="M 1074.115268612354 884.8459786047904&#10;c 0 23.685909968434096 -5.795488609297704 6.803399671784262 -12.598888281081965 6.803399671784262&#10;S 1048.9174920501898 908.5318885732245 1048.9174920501898 884.8459786047904&#10;s 5.795488609297704 -6.803399671784262 12.598888281081965 -6.803399671784262&#10;S 1074.115268612354 861.1600686363563 1074.115268612354 884.8459786047904&#10;z" fill="none" stroke="none"/><circle cx="0" cy="0" r="17.42205418821017" fill="#51cacc"><animateMotion begin="-5.533224221895376s" dur="10s" repeatCount="indefinite"><mpath xlink:href="#path27"/></animateMotion></circle><path id="path28" d="M 1228.0834014377583 34.62412299271445&#10;c 0 24.359905545348504 -5.960402420670378 6.996994146004357 -12.957396566674735 6.996994146004357&#10;S 1202.1686083044087 58.98402853806295 1202.1686083044087 34.62412299271445&#10;s 5.960402420670378 -6.996994146004357 12.957396566674735 -6.996994146004357&#10;S 1228.0834014377583 10.264217447365944 1228.0834014377583 34.62412299271445&#10;z" fill="none" stroke="none"/><circle cx="0" cy="0" r="16.25820867244655" fill="#de9dd6"><animateMotion begin="-5.50145169062702s" dur="10s" repeatCount="indefinite"><mpath xlink:href="#path28"/></animateMotion></circle><path id="path29" d="M 1798.5929053803811 504.6399974099528&#10;c 0 28.702336010656154 -7.022912002607356 8.244288003060811 -15.267200005668167 8.244288003060811&#10;S 1768.0585053690447 533.342333420609 1768.0585053690447 504.6399974099528&#10;s 7.022912002607356 -8.244288003060811 15.267200005668167 -8.244288003060811&#10;S 1798.5929053803811 475.93766139929664 1798.5929053803811 504.6399974099528&#10;z" fill="none" stroke="none"/><circle cx="0" cy="0" r="13.50478988920949" fill="#de9dd6"><animateMotion begin="-5.0063859597262645s" dur="10s" repeatCount="indefinite"><mpath xlink:href="#path29"/></animateMotion></circle></g></svg>