<svg xmlns="http://www.w3.org/2000/svg" xmlns:xlink="http://www.w3.org/1999/xlink" style="margin:auto;background:#ffffff;display:block;z-index:1;position:relative" preserveAspectRatio="xMidYMid" viewBox="0 0 2266 1079"><g transform="translate(1133,539.5) scale(1,1) translate(-1133,-539.5)"><path id="path0" d="M 1280.0784240770415 1037.3654313901093&#10;c 0 35.74213226153215 -8.745415340587654 10.266357138950724 -19.01177247953838 10.266357138950724&#10;S 1242.0548791179647 1073.1075636516414 1242.0548791179647 1037.3654313901093&#10;s 8.745415340587654 -10.266357138950724 19.01177247953838 -10.266357138950724&#10;S 1280.0784240770415 1001.6232991285772 1280.0784240770415 1037.3654313901093&#10;z" fill="none" stroke="none"/><circle cx="0" cy="0" r="7.64586723931973" fill="#e0ff77"><animateMotion begin="-7.952698109840344s" dur="10s" repeatCount="indefinite"><mpath xlink:href="#path0"/></animateMotion></circle><path id="path1" d="M 1466.4430835386488 569.1046151354437&#10;c 0 28.748347092635516 -7.034170033304434 8.257503952139988 -15.291673985444422 8.257503952139988&#10;S 1435.8597355677598 597.8529622280793 1435.8597355677598 569.1046151354437&#10;s 7.034170033304434 -8.257503952139988 15.291673985444422 -8.257503952139988&#10;S 1466.4430835386488 540.3562680428082 1466.4430835386488 569.1046151354437&#10;z" fill="none" stroke="none"/><circle cx="0" cy="0" r="4.774631175993832" fill="#de9dd6"><animateMotion begin="-8.978762360445451s" dur="10s" repeatCount="indefinite"><mpath xlink:href="#path1"/></animateMotion></circle><path id="path2" d="M 1937.4274918627648 622.0855328009436&#10;c 0 25.817277167987857 -6.31699334961405 7.415600888677364 -13.732594238291414 7.415600888677364&#10;S 1909.9623033861822 647.9028099689315 1909.9623033861822 622.0855328009436&#10;s 6.31699334961405 -7.415600888677364 13.732594238291414 -7.415600888677364&#10;S 1937.4274918627648 596.2682556329557 1937.4274918627648 622.0855328009436&#10;z" fill="none" stroke="none"/><circle cx="0" cy="0" r="6.004627576076815" fill="#e0ff77"><animateMotion begin="-1.3080554240377618s" dur="10s" repeatCount="indefinite"><mpath xlink:href="#path2"/></animateMotion></circle><path id="path3" d="M 993.9677450359925 33.155346310114844&#10;c 0 24.700740376514613 -6.043798177232298 7.094893512403133 -13.138691689635431 7.094893512403133&#10;S 967.6903616567217 57.85608668662945 967.6903616567217 33.155346310114844&#10;s 6.043798177232298 -7.094893512403133 13.138691689635431 -7.094893512403133&#10;S 993.9677450359925 8.45460593360023 993.9677450359925 33.155346310114844&#10;z" fill="none" stroke="none"/><circle cx="0" cy="0" r="7.8687425475196715" fill="#e0ff77"><animateMotion begin="-2.928369205070185s" dur="10s" repeatCount="indefinite"><mpath xlink:href="#path3"/></animateMotion></circle><path id="path4" d="M 360.1908958882125 74.27571776411385&#10;c 0 29.52904806357049 -7.225192611299161 8.481747848046842 -15.706940459346004 8.481747848046842&#10;S 328.77701496952045 103.80476582768434 328.77701496952045 74.27571776411385&#10;s 7.225192611299161 -8.481747848046842 15.706940459346004 -8.481747848046842&#10;S 360.1908958882125 44.746669700543364 360.1908958882125 74.27571776411385&#10;z" fill="none" stroke="none"/><circle cx="0" cy="0" r="6.159033617348013" fill="#51cacc"><animateMotion begin="-2.1849906530543417s" dur="10s" repeatCount="indefinite"><mpath xlink:href="#path4"/></animateMotion></circle><path id="path5" d="M 908.4749425906814 191.7427086222157&#10;c 0 19.054020964022573 -4.6621540656650975 5.472963468389463 -10.135117534054562 5.472963468389463&#10;S 888.2047075225723 210.79672958623829 888.2047075225723 191.7427086222157&#10;s 4.6621540656650975 -5.472963468389463 10.135117534054562 -5.472963468389463&#10;S 908.4749425906814 172.68868765819312 908.4749425906814 191.7427086222157&#10;z" fill="none" stroke="none"/><circle cx="0" cy="0" r="4.380843900316338" fill="#51cacc"><animateMotion begin="-8.7272877564995s" dur="10s" repeatCount="indefinite"><mpath xlink:href="#path5"/></animateMotion></circle><path id="path6" d="M 124.63445480550175 308.4123845382128&#10;c 0 23.643988927115796 -5.785231333230461 6.791358521618367 -12.576589854848827 6.791358521618367&#10;S 99.48127509580408 332.0563734653286 99.48127509580408 308.4123845382128&#10;s 5.785231333230461 -6.791358521618367 12.576589854848827 -6.791358521618367&#10;S 124.63445480550175 284.768395611097 124.63445480550175 308.4123845382128&#10;z" fill="none" stroke="none"/><circle cx="0" cy="0" r="7.649937621417013" fill="#51cacc"><animateMotion begin="-0.41479025553100346s" dur="10s" repeatCount="indefinite"><mpath xlink:href="#path6"/></animateMotion></circle><path id="path7" d="M 604.0908567084022 434.1403328841328&#10;c 0 24.43686296864688 -5.979232428498705 7.019098937802828 -12.998331366301532 7.019098937802828&#10;S 578.0941939757992 458.5771958527797 578.0941939757992 434.1403328841328&#10;s 5.979232428498705 -7.019098937802828 12.998331366301532 -7.019098937802828&#10;S 604.0908567084022 409.7034699154859 604.0908567084022 434.1403328841328&#10;z" fill="none" stroke="none"/><circle cx="0" cy="0" r="7.829883432976479" fill="#e0ff77"><animateMotion begin="-4.752240615489893s" dur="10s" repeatCount="indefinite"><mpath xlink:href="#path7"/></animateMotion></circle><path id="path8" d="M 886.6525766224054 834.6553811976377&#10;c 0 35.25532558071003 -8.626303067620539 10.126529688076285 -18.752832755696826 10.126529688076285&#10;S 849.1469111110118 869.9107067783477 849.1469111110118 834.6553811976377&#10;s 8.626303067620539 -10.126529688076285 18.752832755696826 -10.126529688076285&#10;S 886.6525766224054 799.4000556169276 886.6525766224054 834.6553811976377&#10;z" fill="none" stroke="none"/><circle cx="0" cy="0" r="4.158396641736835" fill="#e0ff77"><animateMotion begin="-2.190758732466922s" dur="10s" repeatCount="indefinite"><mpath xlink:href="#path8"/></animateMotion></circle><path id="path9" d="M 2001.2364743704343 694.5353622841068&#10;c 0 23.82339414764131 -5.829128355273936 6.842889808365057 -12.672018163638993 6.842889808365057&#10;S 1975.8924380431563 718.3587564317481 1975.8924380431563 694.5353622841068&#10;s 5.829128355273936 -6.842889808365057 12.672018163638993 -6.842889808365057&#10;S 2001.2364743704343 670.7119681364654 2001.2364743704343 694.5353622841068&#10;z" fill="none" stroke="none"/><circle cx="0" cy="0" r="6.342070051163869" fill="#51cacc"><animateMotion begin="-0.5346635432971558s" dur="10s" repeatCount="indefinite"><mpath xlink:href="#path9"/></animateMotion></circle><path id="path10" d="M 1348.208253179445 447.3257432640411&#10;c 0 20.514746740256438 -5.019565691764873 5.892533638158764 -10.912099329923636 5.892533638158764&#10;S 1326.3840545195976 467.8404900042975 1326.3840545195976 447.3257432640411&#10;s 5.019565691764873 -5.892533638158764 10.912099329923636 -5.892533638158764&#10;S 1348.208253179445 426.81099652378464 1348.208253179445 447.3257432640411&#10;z" fill="none" stroke="none"/><circle cx="0" cy="0" r="4.814889168043131" fill="#e0ff77"><animateMotion begin="-2.0460019010751784s" dur="10s" repeatCount="indefinite"><mpath xlink:href="#path10"/></animateMotion></circle><path id="path11" d="M 2072.0304212234482 879.5714371619928&#10;c 0 25.589138660437147 -6.261172225426109 7.3500717428915205 -13.61124396831763 7.3500717428915205&#10;S 2044.807933286813 905.1605758224299 2044.807933286813 879.5714371619928&#10;s 6.261172225426109 -7.3500717428915205 13.61124396831763 -7.3500717428915205&#10;S 2072.0304212234482 853.9822985015556 2072.0304212234482 879.5714371619928&#10;z" fill="none" stroke="none"/><circle cx="0" cy="0" r="6.484560945546631" fill="#9df871"><animateMotion begin="-3.968675570030573s" dur="10s" repeatCount="indefinite"><mpath xlink:href="#path11"/></animateMotion></circle><path id="path12" d="M 1914.5797356815056 865.7108949113476&#10;c 0 33.222649960716566 -8.12894626698384 9.542676052546248 -17.67162231953009 9.542676052546248&#10;S 1879.2364910424453 898.9335448720642 1879.2364910424453 865.7108949113476&#10;s 8.12894626698384 -9.542676052546248 17.67162231953009 -9.542676052546248&#10;S 1914.5797356815056 832.488244950631 1914.5797356815056 865.7108949113476&#10;z" fill="none" stroke="none"/><circle cx="0" cy="0" r="4.697473660441797" fill="#ff708e"><animateMotion begin="-0.5506278138373499s" dur="10s" repeatCount="indefinite"><mpath xlink:href="#path12"/></animateMotion></circle><path id="path13" d="M 1704.4380433387744 970.1858885917793&#10;c 0 28.922338080950535 -7.07674229640279 8.307480087081537 -15.384222383484328 8.307480087081537&#10;S 1673.6695985718059 999.1082266727299 1673.6695985718059 970.1858885917793&#10;s 7.07674229640279 -8.307480087081537 15.384222383484328 -8.307480087081537&#10;S 1704.4380433387744 941.2635505108287 1704.4380433387744 970.1858885917793&#10;z" fill="none" stroke="none"/><circle cx="0" cy="0" r="7.185847747193488" fill="#ff708e"><animateMotion begin="-3.838292634646361s" dur="10s" repeatCount="indefinite"><mpath xlink:href="#path13"/></animateMotion></circle><path id="path14" d="M 1158.413214777177 151.99845757081127&#10;c 0 27.934231460970906 -6.83497152768437 8.023662228151219 -14.858633755835589 8.023662228151219&#10;S 1128.6959472655058 179.93268903178216 1128.6959472655058 151.99845757081127&#10;s 6.83497152768437 -8.023662228151219 14.858633755835589 -8.023662228151219&#10;S 1158.413214777177 124.06422610984036 1158.413214777177 151.99845757081127&#10;z" fill="none" stroke="none"/><circle cx="0" cy="0" r="5.856374286338153" fill="#ff708e"><animateMotion begin="-8.104619296597562s" dur="10s" repeatCount="indefinite"><mpath xlink:href="#path14"/></animateMotion></circle><path id="path15" d="M 2031.7177236407372 448.3576950941364&#10;c 0 37.53562979308539 -9.184249842988978 10.781510685247932 -19.96576052823691 10.781510685247932&#10;S 1991.7862025842635 485.89332488722175 1991.7862025842635 448.3576950941364&#10;s 9.184249842988978 -10.781510685247932 19.96576052823691 -10.781510685247932&#10;S 2031.7177236407372 410.822065301051 2031.7177236407372 448.3576950941364&#10;z" fill="none" stroke="none"/><circle cx="0" cy="0" r="4.007737951809739" fill="#de9dd6"><animateMotion begin="-9.012923758371594s" dur="10s" repeatCount="indefinite"><mpath xlink:href="#path15"/></animateMotion></circle><path id="path16" d="M 1128.768412808798 1004.4407877151141&#10;c 0 36.189858318434 -8.85496533323385 10.394959304231042 -19.249924637464893 10.394959304231042&#10;S 1090.2685635338685 1040.6306460335481 1090.2685635338685 1004.4407877151141&#10;s 8.85496533323385 -10.394959304231042 19.249924637464893 -10.394959304231042&#10;S 1128.768412808798 968.2509293966801 1128.768412808798 1004.4407877151141&#10;z" fill="none" stroke="none"/><circle cx="0" cy="0" r="7.090728271927476" fill="#51cacc"><animateMotion begin="-9.052799294353642s" dur="10s" repeatCount="indefinite"><mpath xlink:href="#path16"/></animateMotion></circle><path id="path17" d="M 29.28945587151636 214.9819439070184&#10;c 0 32.78696667044554 -8.022342908726035 9.417532979808824 -17.43987588853486 9.417532979808824&#10;S -5.590295905553361 247.76891057746394 -5.590295905553361 214.9819439070184&#10;s 8.022342908726035 -9.417532979808824 17.43987588853486 -9.417532979808824&#10;S 29.28945587151636 182.19497723657287 29.28945587151636 214.9819439070184&#10;z" fill="none" stroke="none"/><circle cx="0" cy="0" r="6.0001861036895" fill="#ff708e"><animateMotion begin="-3.75464358734386s" dur="10s" repeatCount="indefinite"><mpath xlink:href="#path17"/></animateMotion></circle><path id="path18" d="M 643.1093864498948 671.2034541410267&#10;c 0 23.23279175535057 -5.684619259287905 6.673248695685802 -12.357867954973706 6.673248695685802&#10;S 618.3936505399474 694.4362458963773 618.3936505399474 671.2034541410267&#10;s 5.684619259287905 -6.673248695685802 12.357867954973706 -6.673248695685802&#10;S 643.1093864498948 647.9706623856761 643.1093864498948 671.2034541410267&#10;z" fill="none" stroke="none"/><circle cx="0" cy="0" r="7.918846442719563" fill="#ff708e"><animateMotion begin="-2.097101122006466s" dur="10s" repeatCount="indefinite"><mpath xlink:href="#path18"/></animateMotion></circle><path id="path19" d="M 608.6514240114134 292.228351791749&#10;c 0 26.05559307643193 -6.375304688914195 7.48405333046449 -13.859358019378686 7.48405333046449&#10;S 580.9327079726561 318.2839448681809 580.9327079726561 292.228351791749&#10;s 6.375304688914195 -7.48405333046449 13.859358019378686 -7.48405333046449&#10;S 608.6514240114134 266.17275871531706 608.6514240114134 292.228351791749&#10;z" fill="none" stroke="none"/><circle cx="0" cy="0" r="4.071792987244232" fill="#9df871"><animateMotion begin="-0.7910121332487408s" dur="10s" repeatCount="indefinite"><mpath xlink:href="#path19"/></animateMotion></circle><path id="path20" d="M 1366.5284468650432 981.3637621189865&#10;c 0 20.335729427553595 -4.9757635833375815 5.841113771744118 -10.8168773550817 5.841113771744118&#10;S 1344.8946921548797 1001.6994915465401 1344.8946921548797 981.3637621189865&#10;s 4.9757635833375815 -5.841113771744118 10.8168773550817 -5.841113771744118&#10;S 1366.5284468650432 961.0280326914329 1366.5284468650432 981.3637621189865&#10;z" fill="none" stroke="none"/><circle cx="0" cy="0" r="6.859911212478171" fill="#de9dd6"><animateMotion begin="-7.33415577906662s" dur="10s" repeatCount="indefinite"><mpath xlink:href="#path20"/></animateMotion></circle><path id="path21" d="M 166.662804902802 17.94338854899923&#10;c 0 23.936483421098686 -5.856799134949678 6.875372897549623 -12.7321720324993 6.875372897549623&#10;S 141.1984608378034 41.879871970097916 141.1984608378034 17.94338854899923&#10;s 5.856799134949678 -6.875372897549623 12.7321720324993 -6.875372897549623&#10;S 166.662804902802 -5.993094872099455 166.662804902802 17.94338854899923&#10;z" fill="none" stroke="none"/><circle cx="0" cy="0" r="4.464892749204964" fill="#9df871"><animateMotion begin="-1.1467290603036284s" dur="10s" repeatCount="indefinite"><mpath xlink:href="#path21"/></animateMotion></circle><path id="path22" d="M 1420.7537859223169 353.4219019394534&#10;c 0 29.2005495940342 -7.144815326199857 8.387391904669398 -15.532207230869254 8.387391904669398&#10;S 1389.6893714605783 382.6224515334876 1389.6893714605783 353.4219019394534&#10;s 7.144815326199857 -8.387391904669398 15.532207230869254 -8.387391904669398&#10;S 1420.7537859223169 324.2213523454192 1420.7537859223169 353.4219019394534&#10;z" fill="none" stroke="none"/><circle cx="0" cy="0" r="6.101055442300751" fill="#9df871"><animateMotion begin="-4.955378414171712s" dur="10s" repeatCount="indefinite"><mpath xlink:href="#path22"/></animateMotion></circle><path id="path23" d="M 997.1275489102356 860.930567967733&#10;c 0 36.78102023193372 -8.999611333345483 10.564761130449046 -19.564372463794527 10.564761130449046&#10;S 957.9988039826467 897.7115881996667 957.9988039826467 860.930567967733&#10;s 8.999611333345483 -10.564761130449046 19.564372463794527 -10.564761130449046&#10;S 997.1275489102356 824.1495477357994 997.1275489102356 860.930567967733&#10;z" fill="none" stroke="none"/><circle cx="0" cy="0" r="7.445041377448274" fill="#de9dd6"><animateMotion begin="-0.8261450665397052s" dur="10s" repeatCount="indefinite"><mpath xlink:href="#path23"/></animateMotion></circle><path id="path24" d="M 2207.6513099105437 751.2262668872852&#10;c 0 23.264105293435193 -5.69228108243627 6.682243009816491 -12.374524092252761 6.682243009816491&#10;S 2182.9022617260384 774.4903721807204 2182.9022617260384 751.2262668872852&#10;s 5.69228108243627 -6.682243009816491 12.374524092252761 -6.682243009816491&#10;S 2207.6513099105437 727.9621615938499 2207.6513099105437 751.2262668872852&#10;z" fill="none" stroke="none"/><circle cx="0" cy="0" r="6.806782015513666" fill="#ff708e"><animateMotion begin="-9.027455659927654s" dur="10s" repeatCount="indefinite"><mpath xlink:href="#path24"/></animateMotion></circle><path id="path25" d="M 501.04932639646955 226.99199399329046&#10;c 0 28.95256079403753 -7.084137215562373 8.31616107913844 -15.400298294700814 8.31616107913844&#10;S 470.24872980706795 255.944554787328 470.24872980706795 226.99199399329046&#10;s 7.084137215562373 -8.31616107913844 15.400298294700814 -8.31616107913844&#10;S 501.04932639646955 198.03943319925293 501.04932639646955 226.99199399329046&#10;z" fill="none" stroke="none"/><circle cx="0" cy="0" r="7.5312195626972365" fill="#e0ff77"><animateMotion begin="-5.0103110211364505s" dur="10s" repeatCount="indefinite"><mpath xlink:href="#path25"/></animateMotion></circle><path id="path26" d="M 841.5875899004111 899.2427457692177&#10;c 0 20.455926468739957 -5.005173497670414 5.875638453787009 -10.880811951457423 5.875638453787009&#10;S 819.8259659974963 919.6986722379576 819.8259659974963 899.2427457692177&#10;s 5.005173497670414 -5.875638453787009 10.880811951457423 -5.875638453787009&#10;S 841.5875899004111 878.7868193004778 841.5875899004111 899.2427457692177&#10;z" fill="none" stroke="none"/><circle cx="0" cy="0" r="5.821258770214898" fill="#9df871"><animateMotion begin="-8.403975203406286s" dur="10s" repeatCount="indefinite"><mpath xlink:href="#path26"/></animateMotion></circle><path id="path27" d="M 400.5847325851574 697.1430032268588&#10;c 0 27.94700743223873 -6.838097563207349 8.027331922026018 -14.865429485233367 8.027331922026018&#10;S 370.8538736146906 725.0900106590975 370.8538736146906 697.1430032268588&#10;s 6.838097563207349 -8.027331922026018 14.865429485233367 -8.027331922026018&#10;S 400.5847325851574 669.1959957946201 400.5847325851574 697.1430032268588&#10;z" fill="none" stroke="none"/><circle cx="0" cy="0" r="6.116335775846513" fill="#e0ff77"><animateMotion begin="-9.315411302737921s" dur="10s" repeatCount="indefinite"><mpath xlink:href="#path27"/></animateMotion></circle><path id="path28" d="M 921.3197188025355 766.9434148565635&#10;c 0 29.444475357181556 -7.204499289523145 8.457455687701085 -15.66195497722423 8.457455687701085&#10;S 889.995808848087 796.3878902137451 889.995808848087 766.9434148565635&#10;s 7.204499289523145 -8.457455687701085 15.66195497722423 -8.457455687701085&#10;S 921.3197188025355 737.498939499382 921.3197188025355 766.9434148565635&#10;z" fill="none" stroke="none"/><circle cx="0" cy="0" r="5.758108042427956" fill="#51cacc"><animateMotion begin="-6.303425365958688s" dur="10s" repeatCount="indefinite"><mpath xlink:href="#path28"/></animateMotion></circle><path id="path29" d="M 1137.0054805045484 749.3292121135886&#10;c 0 36.08623712037087 -8.82961121030351 10.365195768617165 -19.194806978920674 10.365195768617165&#10;S 1098.615866546707 785.4154492339594 1098.615866546707 749.3292121135886&#10;s 8.82961121030351 -10.365195768617165 19.194806978920674 -10.365195768617165&#10;S 1137.0054805045484 713.2429749932178 1137.0054805045484 749.3292121135886&#10;z" fill="none" stroke="none"/><circle cx="0" cy="0" r="6.543692155712011" fill="#de9dd6"><animateMotion begin="-3.277087955648259s" dur="10s" repeatCount="indefinite"><mpath xlink:href="#path29"/></animateMotion></circle><path id="path30" d="M 1707.9805832667685 707.9415921441141&#10;c 0 21.53780233630018 -5.269887805690469 6.186390032767074 -11.456277838457542 6.186390032767074&#10;S 1685.0680275898535 729.4793944804143 1685.0680275898535 707.9415921441141&#10;s 5.269887805690469 -6.186390032767074 11.456277838457542 -6.186390032767074&#10;S 1707.9805832667685 686.403789807814 1707.9805832667685 707.9415921441141&#10;z" fill="none" stroke="none"/><circle cx="0" cy="0" r="7.719818887610583" fill="#de9dd6"><animateMotion begin="-5.244041600628096s" dur="10s" repeatCount="indefinite"><mpath xlink:href="#path30"/></animateMotion></circle><path id="path31" d="M 1010.9153863275005 874.9414804550115&#10;c 0 20.740427554416268 -5.074785465442278 5.957356850736588 -11.032142316178867 5.957356850736588&#10;S 988.8511016951427 895.6819080094277 988.8511016951427 874.9414804550115&#10;s 5.074785465442278 -5.957356850736588 11.032142316178867 -5.957356850736588&#10;S 1010.9153863275005 854.2010529005953 1010.9153863275005 874.9414804550115&#10;z" fill="none" stroke="none"/><circle cx="0" cy="0" r="6.415441736879209" fill="#ff708e"><animateMotion begin="-4.7865472495741095s" dur="10s" repeatCount="indefinite"><mpath xlink:href="#path31"/></animateMotion></circle><path id="path32" d="M 1774.3922774607574 763.2100146001427&#10;c 0 22.644630407692873 -5.54070744018017 6.504308734124549 -12.045016174304719 6.504308734124549&#10;S 1750.302245112148 785.8546450078355 1750.302245112148 763.2100146001427&#10;s 5.54070744018017 -6.504308734124549 12.045016174304719 -6.504308734124549&#10;S 1774.3922774607574 740.5653841924499 1774.3922774607574 763.2100146001427&#10;z" fill="none" stroke="none"/><circle cx="0" cy="0" r="4.337066571640894" fill="#e0ff77"><animateMotion begin="-2.9098155751795507s" dur="10s" repeatCount="indefinite"><mpath xlink:href="#path32"/></animateMotion></circle><path id="path33" d="M 2213.7131477359035 753.1691199085634&#10;c 0 29.493927846750292 -7.21659936675805 8.471660126194234 -15.688259492952284 8.471660126194234&#10;S 2182.3366287499985 782.6630477553136 2182.3366287499985 753.1691199085634&#10;s 7.21659936675805 -8.471660126194234 15.688259492952284 -8.471660126194234&#10;S 2213.7131477359035 723.6751920618132 2213.7131477359035 753.1691199085634&#10;z" fill="none" stroke="none"/><circle cx="0" cy="0" r="4.249396150699077" fill="#e0ff77"><animateMotion begin="-9.76514541606247s" dur="10s" repeatCount="indefinite"><mpath xlink:href="#path33"/></animateMotion></circle><path id="path34" d="M 1313.5225055094681 501.5013100960302&#10;c 0 20.509334170153583 -5.018241339505663 5.890978963767519 -10.909220303273182 5.890978963767519&#10;S 1291.7040649029216 522.0106442661838 1291.7040649029216 501.5013100960302&#10;s 5.018241339505663 -5.890978963767519 10.909220303273182 -5.890978963767519&#10;S 1313.5225055094681 480.9919759258766 1313.5225055094681 501.5013100960302&#10;z" fill="none" stroke="none"/><circle cx="0" cy="0" r="5.184090306281305" fill="#de9dd6"><animateMotion begin="-8.060583081023744s" dur="10s" repeatCount="indefinite"><mpath xlink:href="#path34"/></animateMotion></circle><path id="path35" d="M 172.1368224810815 591.5304358385255&#10;c 0 35.50361915529561 -8.687055750763818 10.197848055244483 -18.884903806008303 10.197848055244483&#10;S 134.3670148690649 627.0340549938211 134.3670148690649 591.5304358385255&#10;s 8.687055750763818 -10.197848055244483 18.884903806008303 -10.197848055244483&#10;S 172.1368224810815 556.0268166832299 172.1368224810815 591.5304358385255&#10;z" fill="none" stroke="none"/><circle cx="0" cy="0" r="5.734830804170898" fill="#e0ff77"><animateMotion begin="-9.573238387990244s" dur="10s" repeatCount="indefinite"><mpath xlink:href="#path35"/></animateMotion></circle><path id="path36" d="M 2209.748409155529 83.82100628516588&#10;c 0 34.27893064549697 -8.387397923898193 9.846075823706576 -18.23347374760477 9.846075823706576&#10;S 2173.281461660319 118.09993693066285 2173.281461660319 83.82100628516588&#10;s 8.387397923898193 -9.846075823706576 18.23347374760477 -9.846075823706576&#10;S 2209.748409155529 49.54207563966891 2209.748409155529 83.82100628516588&#10;z" fill="none" stroke="none"/><circle cx="0" cy="0" r="4.212244263330412" fill="#de9dd6"><animateMotion begin="-2.1056495555725863s" dur="10s" repeatCount="indefinite"><mpath xlink:href="#path36"/></animateMotion></circle><path id="path37" d="M 1210.3281742967497 1010.7104939786973&#10;c 0 28.47317062145354 -6.966839620142887 8.178463901906868 -15.145303522049755 8.178463901906868&#10;S 1180.0375672526502 1039.183664600151 1180.0375672526502 1010.7104939786973&#10;s 6.966839620142887 -8.178463901906868 15.145303522049755 -8.178463901906868&#10;S 1210.3281742967497 982.2373233572438 1210.3281742967497 1010.7104939786973&#10;z" fill="none" stroke="none"/><circle cx="0" cy="0" r="4.078923432164072" fill="#9df871"><animateMotion begin="-8.28620748381389s" dur="10s" repeatCount="indefinite"><mpath xlink:href="#path37"/></animateMotion></circle><path id="path38" d="M 1138.949785759364 790.8449437542919&#10;c 0 19.705765311596927 -4.821623427305631 5.660166632054437 -10.481790059360067 5.660166632054437&#10;S 1117.986205640644 810.5507090658888 1117.986205640644 790.8449437542919&#10;s 4.821623427305631 -5.660166632054437 10.481790059360067 -5.660166632054437&#10;S 1138.949785759364 771.139178442695 1138.949785759364 790.8449437542919&#10;z" fill="none" stroke="none"/><circle cx="0" cy="0" r="7.082991355429237" fill="#e0ff77"><animateMotion begin="-0.037283617513874656s" dur="10s" repeatCount="indefinite"><mpath xlink:href="#path38"/></animateMotion></circle><path id="path39" d="M 1513.362959568852 176.9941976760007&#10;c 0 23.327630358884534 -5.7078244495143 6.700489571168962 -12.408314020683262 6.700489571168962&#10;S 1488.5463315274853 200.32182803488524 1488.5463315274853 176.9941976760007&#10;s 5.7078244495143 -6.700489571168962 12.408314020683262 -6.700489571168962&#10;S 1513.362959568852 153.66656731711618 1513.362959568852 176.9941976760007&#10;z" fill="none" stroke="none"/><circle cx="0" cy="0" r="5.84028011353319" fill="#de9dd6"><animateMotion begin="-6.75963184705356s" dur="10s" repeatCount="indefinite"><mpath xlink:href="#path39"/></animateMotion></circle><path id="path40" d="M 1510.2640530692786 861.3365739293763&#10;c 0 33.983277599689345 -8.31505728503037 9.761154204166088 -18.07621148919646 9.761154204166088&#10;S 1474.1116300908855 895.3198515290657 1474.1116300908855 861.3365739293763&#10;s 8.31505728503037 -9.761154204166088 18.07621148919646 -9.761154204166088&#10;S 1510.2640530692786 827.3532963296869 1510.2640530692786 861.3365739293763&#10;z" fill="none" stroke="none"/><circle cx="0" cy="0" r="7.094493066617955" fill="#9df871"><animateMotion begin="-7.40881543664633s" dur="10s" repeatCount="indefinite"><mpath xlink:href="#path40"/></animateMotion></circle><path id="path41" d="M 316.92991283659745 174.6746046697796&#10;c 0 21.397585223590088 -5.235579363218851 6.1461149046482175 -11.381694267867069 6.1461149046482175&#10;S 294.1665243008633 196.07218989336968 294.1665243008633 174.6746046697796&#10;s 5.235579363218851 -6.1461149046482175 11.381694267867069 -6.1461149046482175&#10;S 316.92991283659745 153.2770194461895 316.92991283659745 174.6746046697796&#10;z" fill="none" stroke="none"/><circle cx="0" cy="0" r="6.892067074139364" fill="#de9dd6"><animateMotion begin="-6.609578880388249s" dur="10s" repeatCount="indefinite"><mpath xlink:href="#path41"/></animateMotion></circle><path id="path42" d="M 2183.4754791749383 994.9395925258586&#10;c 0 21.95951397104677 -5.373072567383784 6.307519970407051 -11.680592537790835 6.307519970407051&#10;S 2160.114294099357 1016.8991064969055 2160.114294099357 994.9395925258586&#10;s 5.373072567383784 -6.307519970407051 11.680592537790835 -6.307519970407051&#10;S 2183.4754791749383 972.9800785548118 2183.4754791749383 994.9395925258586&#10;z" fill="none" stroke="none"/><circle cx="0" cy="0" r="6.963593595099856" fill="#de9dd6"><animateMotion begin="-6.348198325989314s" dur="10s" repeatCount="indefinite"><mpath xlink:href="#path42"/></animateMotion></circle><path id="path43" d="M 2149.7744288815697 1009.6530309296526&#10;c 0 27.228033392770207 -6.66217838333739 7.820818102178676 -14.482996485516066 7.820818102178676&#10;S 2120.8084359105374 1036.8810643224228 2120.8084359105374 1009.6530309296526&#10;s 6.66217838333739 -7.820818102178676 14.482996485516066 -7.820818102178676&#10;S 2149.7744288815697 982.4249975368824 2149.7744288815697 1009.6530309296526&#10;z" fill="none" stroke="none"/><circle cx="0" cy="0" r="5.706208223156424" fill="#de9dd6"><animateMotion begin="-7.019322750910413s" dur="10s" repeatCount="indefinite"><mpath xlink:href="#path43"/></animateMotion></circle><path id="path44" d="M 1879.8265122992777 895.8928795265758&#10;c 0 25.296114168034695 -6.189474743242531 7.265905133371668 -13.455379876614199 7.265905133371668&#10;S 1852.9157525460494 921.1889936946105 1852.9157525460494 895.8928795265758&#10;s 6.189474743242531 -7.265905133371668 13.455379876614199 -7.265905133371668&#10;S 1879.8265122992777 870.5967653585411 1879.8265122992777 895.8928795265758&#10;z" fill="none" stroke="none"/><circle cx="0" cy="0" r="4.559528151219971" fill="#de9dd6"><animateMotion begin="-3.464737380193621s" dur="10s" repeatCount="indefinite"><mpath xlink:href="#path44"/></animateMotion></circle><path id="path45" d="M 843.3935719153557 835.0439275152447&#10;c 0 21.642180957022287 -5.295427255441623 6.21637112595321 -11.511798381394833 6.21637112595321&#10;S 820.3699751525661 856.686108472267 820.3699751525661 835.0439275152447&#10;s 5.295427255441623 -6.21637112595321 11.511798381394833 -6.21637112595321&#10;S 843.3935719153557 813.4017465582224 843.3935719153557 835.0439275152447&#10;z" fill="none" stroke="none"/><circle cx="0" cy="0" r="6.436835037570646" fill="#ff708e"><animateMotion begin="-6.794793860973057s" dur="10s" repeatCount="indefinite"><mpath xlink:href="#path45"/></animateMotion></circle><path id="path46" d="M 696.9979518245887 505.7990575155997&#10;c 0 30.92638032091386 -7.56709305724488 8.883109241113557 -16.450202298358438 8.883109241113557&#10;S 664.0975472278717 536.7254378365136 664.0975472278717 505.7990575155997&#10;s 7.56709305724488 -8.883109241113557 16.450202298358438 -8.883109241113557&#10;S 696.9979518245887 474.8726771946859 696.9979518245887 505.7990575155997&#10;z" fill="none" stroke="none"/><circle cx="0" cy="0" r="4.567900150822987" fill="#9df871"><animateMotion begin="-1.3674641785316877s" dur="10s" repeatCount="indefinite"><mpath xlink:href="#path46"/></animateMotion></circle><path id="path47" d="M 1452.0991975647191 53.50319329925908&#10;c 0 31.04198147725465 -7.595378446562307 8.916313828573145 -16.511692275135452 8.916313828573145&#10;S 1419.0758130144484 84.54517477651373 1419.0758130144484 53.50319329925908&#10;s 7.595378446562307 -8.916313828573145 16.511692275135452 -8.916313828573145&#10;S 1452.0991975647191 22.46121182200443 1452.0991975647191 53.50319329925908&#10;z" fill="none" stroke="none"/><circle cx="0" cy="0" r="5.076809279331524" fill="#de9dd6"><animateMotion begin="-4.630087461709849s" dur="10s" repeatCount="indefinite"><mpath xlink:href="#path47"/></animateMotion></circle><path id="path48" d="M 2093.2891196017295 635.5992107149864&#10;c 0 29.45688372150217 -7.2075353786654235 8.461019792346368 -15.668555171011791 8.461019792346368&#10;S 2061.9520092597063 665.0560944364886 2061.9520092597063 635.5992107149864&#10;s 7.2075353786654235 -8.461019792346368 15.668555171011791 -8.461019792346368&#10;S 2093.2891196017295 606.1423269934842 2093.2891196017295 635.5992107149864&#10;z" fill="none" stroke="none"/><circle cx="0" cy="0" r="6.8466866698386015" fill="#9df871"><animateMotion begin="-1.0609619663430192s" dur="10s" repeatCount="indefinite"><mpath xlink:href="#path48"/></animateMotion></circle><path id="path49" d="M 1106.4916276259908 41.03189761240152&#10;c 0 25.28567217573991 -6.186919787681042 7.262905837712529 -13.44982562539357 7.262905837712529&#10;S 1079.5919763752038 66.31756978814144 1079.5919763752038 41.03189761240152&#10;s 6.186919787681042 -7.262905837712529 13.44982562539357 -7.262905837712529&#10;S 1106.4916276259908 15.74622543666161 1106.4916276259908 41.03189761240152&#10;z" fill="none" stroke="none"/><circle cx="0" cy="0" r="7.122284600933357" fill="#e0ff77"><animateMotion begin="-7.186224846473066s" dur="10s" repeatCount="indefinite"><mpath xlink:href="#path49"/></animateMotion></circle></g></svg>